<svg width="247" height="39" viewBox="0 0 247 39" fill="none" xmlns="http://www.w3.org/2000/svg">
<path d="M104.937 26.6283C104.285 26.434 103.725 26.0194 103.247 25.4688C102.942 25.0607 102.665 24.5296 102.453 23.8235C101.496 20.6301 101.235 12.8182 104.932 11.7041C104.932 11.7041 108.384 10.5382 110.118 15.0789L111.2 13.7964C110.086 12.1705 108.477 11.0564 106.65 10.7584C106.639 10.7584 106.628 10.7584 106.617 10.7519C106.579 10.7519 106.536 10.7325 106.498 10.7325C106.302 10.7001 106.046 10.6807 105.699 10.6807C101.774 10.6807 98.5933 14.483 98.5933 19.1727C98.5933 23.0138 100.724 26.2526 103.654 27.3019L103.002 28.6816C103.002 28.6816 104.899 27.7877 106.53 29.2581C106.53 29.2581 106.193 30.4889 104.59 30.4889C103.198 30.4889 102.018 29.1998 102.018 29.1998L102.594 31.3309C102.594 31.3309 103.589 32.16 104.943 32.0046C106.297 31.8491 107.433 31.1301 107.514 29.3099C107.552 28.5067 107.253 27.9302 106.911 27.5286C108.634 27.1789 110.145 26.0971 111.211 24.5425L110.129 23.26C108.395 27.8007 104.943 26.6347 104.943 26.6347L104.937 26.6283Z" fill="white"/>
<path d="M46.1489 14.3145L48.3288 25.2486C48.3669 25.4494 48.3886 25.6502 48.3886 25.8056C48.3886 25.9805 48.3451 26.1295 48.2527 26.285C48.2419 26.2979 48.1331 26.4404 47.6221 26.4404H47.3286V27.3214H52.4822V26.4404H52.1886C51.6124 26.4404 51.4167 26.2655 51.2753 25.6113L48.3941 10.9074H44.6974V11.8142H44.9909C45.6868 11.8142 45.7411 12.1187 45.7411 12.4879V12.611C45.7411 12.734 45.7194 13.0903 45.5128 13.764L42.5011 25.0607C42.2238 26.1295 42.0227 26.3821 41.4247 26.4339L41.1529 26.4599V27.3149H44.132V26.4339H43.8384C43.5557 26.4339 43.3383 26.3562 43.2078 26.2008C43.1045 26.0906 43.0991 25.987 43.0991 25.8704C43.0991 25.7603 43.1099 25.6567 43.1371 25.5401C43.1589 25.4364 46.138 14.3081 46.138 14.3081L46.1489 14.3145Z" fill="white"/>
<path d="M77.8645 14.3145L80.0445 25.2486C80.0825 25.4494 80.1043 25.6502 80.1043 25.8056C80.1043 25.9805 80.0608 26.1295 79.9684 26.285C79.9575 26.2979 79.8488 26.4404 79.3378 26.4404H79.0442V27.3214H84.1978V26.4404H83.9043C83.328 26.4404 83.1323 26.2655 82.991 25.6113L80.1097 10.9074H76.413V11.8142H76.7066C77.4024 11.8142 77.4568 12.1187 77.4568 12.4879V12.611C77.4568 12.734 77.435 13.0903 77.2285 13.764L74.2167 25.0607C73.9395 26.1295 73.7383 26.3821 73.1403 26.4339L72.8685 26.4599V27.3149H75.8476V26.4339H75.5541C75.2714 26.4339 75.0539 26.3562 74.9234 26.2008C74.8202 26.0906 74.8147 25.987 74.8147 25.8704C74.8147 25.7603 74.8256 25.6567 74.8528 25.5401C74.8745 25.4364 77.8536 14.3081 77.8536 14.3081L77.8645 14.3145Z" fill="white"/>
<path d="M117.262 14.3145L119.442 25.2486C119.48 25.4494 119.501 25.6502 119.501 25.8056C119.501 25.9805 119.458 26.1295 119.366 26.285C119.355 26.2979 119.246 26.4404 118.735 26.4404H118.441V27.3214H123.595V26.4404H123.301C122.725 26.4404 122.53 26.2655 122.388 25.6113L119.507 10.9074H115.81V11.8142H116.104C116.8 11.8142 116.854 12.1187 116.854 12.4879V12.611C116.854 12.734 116.832 13.0903 116.626 13.764L113.614 25.0607C113.337 26.1295 113.135 26.3821 112.537 26.4339L112.266 26.4599V27.3149H115.245V26.4339H114.951C114.669 26.4339 114.451 26.3562 114.321 26.2008C114.217 26.0906 114.212 25.987 114.212 25.8704C114.212 25.7603 114.223 25.6567 114.25 25.5401C114.272 25.4364 117.251 14.3081 117.251 14.3081L117.262 14.3145Z" fill="white"/>
<path d="M63.8442 22.3661L63.7844 22.7159C63.4256 24.7498 63.0722 26.4404 62.3981 26.4404H59.0874C58.3698 26.4404 58.2502 26.2008 58.2447 25.4494V13.0579C58.2447 12.5138 58.2937 12.2094 58.4241 12.015C58.5111 11.8661 58.7503 11.7883 59.0928 11.7883H59.3864V10.9074H54.2816V11.7883H54.5752C55.233 11.7883 55.4178 12.0733 55.4178 13.0579V25.2809C55.4178 26.2461 55.271 26.4404 54.5589 26.4404H54.2653V27.3214H63.8333L64.5618 22.5669L63.8442 22.3726V22.3661Z" fill="white"/>
<path d="M69.8513 13.0514C69.8513 11.9567 70.1014 11.7818 70.7103 11.7818H71.0038V10.9009H65.8828V11.7818H66.1764C66.8396 11.7818 67.0353 11.9502 67.0353 13.0514V25.1643C67.0353 26.259 66.9157 26.4339 66.1764 26.4339H65.8828V27.3149H71.0038V26.4339H70.7103C70.0035 26.4339 69.8513 26.2072 69.8513 25.1643V13.0514Z" fill="white"/>
<path d="M96.3535 12.87C96.3535 12.1899 96.6906 11.7818 97.2559 11.7818H97.6202V10.9009H94.3475V11.7818H94.7009C94.9781 11.7818 95.6142 11.8919 95.6142 12.883V20.4099L89.6668 10.9009H86.2039V11.7818H86.4974C87.1443 11.7818 87.3455 12.0474 87.3564 12.9283V25.3328C87.3564 26.2461 86.8508 26.4339 86.4322 26.4339H86.0788V27.3149H89.3624V26.4339H88.9981C88.7861 26.4339 88.0848 26.3562 88.0848 25.3587V14.023L95.1575 25.3004C95.4619 25.7732 95.6196 26.3368 95.6196 26.9716V27.3214H96.3589V12.8765L96.3535 12.87Z" fill="white"/>
<path d="M147.33 13.019C147.33 11.9243 147.58 11.7494 148.184 11.7494H148.477V10.8685H143.362V11.7494H143.655C144.318 11.7494 144.509 11.9178 144.509 13.019V25.119C144.509 26.2072 144.389 26.3886 143.655 26.3886H143.362V27.2695H148.477V26.3886H148.184C147.482 26.3886 147.33 26.1618 147.33 25.119V13.019Z" fill="white"/>
<path d="M222.346 12.8312C222.346 12.1511 222.683 11.743 223.249 11.743H223.613V10.8621H220.346V11.743H220.699C220.976 11.743 221.612 11.8531 221.612 12.8442V20.3645L215.67 10.8621H212.213V11.743H212.506C213.153 11.743 213.349 12.0086 213.36 12.8895V25.281C213.36 26.1943 212.854 26.3821 212.436 26.3821H212.082V27.2631H215.36V26.3821H214.996C214.784 26.3821 214.083 26.3044 214.083 25.3069V13.9842L221.15 25.2486C221.455 25.7214 221.612 26.285 221.612 26.9133V27.2631H222.352V12.8377L222.346 12.8312Z" fill="white"/>
<path d="M171.968 22.3142L171.902 22.6705C171.544 24.7044 171.19 26.3886 170.516 26.3886H166.895C166.134 26.3886 166.042 26.2655 166.042 25.3133V19.4253H168.255C168.825 19.4253 169.168 19.8269 169.168 20.5005V21.7442H169.896V16.2254H169.168V17.4431C169.168 17.9484 169.005 18.5443 168.244 18.5443H166.042V12.8376C166.042 11.9826 166.151 11.7494 166.895 11.7494H170.19C170.875 11.7494 171.239 13.5113 171.587 15.4675L171.647 15.7979L172.359 15.6554L171.625 10.8685H158.029V11.7494H158.322C158.605 11.7494 158.844 11.8336 158.964 11.9632C159.062 12.0798 159.078 12.2028 159.078 12.313C159.078 12.4231 159.062 12.5138 159.035 12.6239L156.039 23.8623C156.039 23.8623 153.805 12.5267 153.805 12.3713C153.805 12.1964 153.848 12.0474 153.935 11.9049C153.973 11.8466 154.153 11.7494 154.56 11.7494H154.854V10.8685H149.706V11.7494H149.999C150.576 11.7494 150.771 11.9308 150.907 12.585C150.907 12.585 153.712 26.8355 153.734 26.9521V27.2695H157.491V26.3627H157.197C156.86 26.3627 156.643 26.2914 156.545 26.1489C156.447 25.9999 156.447 25.8315 156.447 25.702C156.447 25.5335 156.474 25.3392 156.496 25.1643C156.566 24.7757 159.681 13.1226 159.681 13.1226C159.953 12.0798 160.144 11.8336 160.758 11.7494H162.383C163.101 11.7494 163.226 11.9373 163.226 13.019V25.119C163.226 26.1878 163.112 26.3562 162.372 26.3886L162.09 26.4015V27.2695H171.951L172.68 22.528L171.978 22.3207L171.968 22.3142Z" fill="white"/>
<path d="M210.783 22.3142L210.718 22.6705C210.359 24.7044 210.006 26.3886 209.332 26.3886H205.711C204.95 26.3886 204.857 26.2655 204.857 25.3133V19.4447C204.857 19.4447 206.048 19.4253 207.07 19.4253C207.641 19.4253 207.983 19.8269 207.983 20.5005V21.7442H208.712V16.2254H207.983V17.4431C207.983 17.9484 207.82 18.5443 207.059 18.5443H204.857V12.8376C204.857 11.9826 204.966 11.7494 205.711 11.7494H209.005C209.69 11.7494 210.055 13.5113 210.403 15.4675L210.462 15.7979L211.174 15.6554L210.457 10.8685H200.894V11.7494H201.188C201.906 11.7494 202.031 11.9373 202.031 13.019V25.119C202.031 26.1878 201.916 26.3562 201.177 26.3886L200.894 26.4015V27.2695H210.756L211.484 22.528L210.783 22.3207V22.3142Z" fill="white"/>
<path d="M246.299 22.3142L246.233 22.6705C245.875 24.7044 245.521 26.3886 244.847 26.3886H241.227C240.466 26.3886 240.373 26.2655 240.373 25.3133V19.4447C240.373 19.4447 241.564 19.4253 242.586 19.4253C243.156 19.4253 243.499 19.8269 243.499 20.5005V21.7442H244.227V16.2254H243.499V17.4431C243.499 17.9484 243.336 18.5443 242.575 18.5443H240.373V12.8376C240.373 11.9826 240.482 11.7494 241.227 11.7494H244.521C245.206 11.7494 245.57 13.5113 245.918 15.4675L245.978 15.7979L246.69 15.6554L245.973 10.8685H236.41V11.7494H236.704C237.421 11.7494 237.546 11.9373 237.546 13.019V25.119C237.546 26.1878 237.432 26.3562 236.693 26.3886L236.41 26.4015V27.2695H246.272L247 22.528L246.299 22.3207V22.3142Z" fill="white"/>
<path d="M174.833 25.1255C174.833 26.1942 174.718 26.3626 173.979 26.395L173.696 26.408V27.276H179.448V26.395H179.154C178.491 26.395 177.708 26.0453 177.502 25.0542C177.382 24.4583 177.382 24.0502 177.382 23.8364C177.382 23.4348 177.377 22.2818 178.105 21.2584C178.268 21.0446 178.469 20.779 178.681 20.5847L180.59 25.2809C180.736 25.6177 180.91 26.0323 181.166 26.3886H180.34V27.2695H186.417V26.3886H184.531C183.976 26.3886 183.601 25.527 183.465 25.1578L181.041 19.0755C182.286 18.337 183.46 17.5532 183.683 15.5647C183.699 15.461 183.699 15.0918 183.699 15.0918C183.699 13.9712 183.346 12.9672 182.683 12.1899C181.954 11.3413 180.856 10.875 179.589 10.875H173.702V11.7559H173.995C174.713 11.7559 174.838 11.9437 174.838 13.0255V25.1255H174.833ZM178.453 19.4512L177.665 20.4228V12.8441C177.665 11.9891 177.774 11.7559 178.518 11.7559H178.763C179.421 11.7559 179.954 12.0992 180.302 12.7405C180.66 13.4336 180.736 14.2109 180.736 14.742C180.736 14.904 180.731 15.0335 180.72 15.1825V15.2732C180.557 17.061 179.698 18.0391 178.709 19.1661L178.459 19.4512H178.453Z" fill="white"/>
<path d="M194.963 18.5508L194.996 19.4317H195.469C196.219 19.4317 196.322 19.5613 196.322 20.52V22.2624C196.322 23.2405 196.116 24.0826 195.741 24.7627C195.105 25.7149 194.376 26.2266 193.702 26.4793C193.626 26.5052 193.55 26.5376 193.468 26.557C193.202 26.6347 192.914 26.6801 192.615 26.7125C192.435 26.7254 192.267 26.7189 192.115 26.7125C191.631 26.6801 191.343 26.5894 191.343 26.5894C190 26.1878 189.179 24.8988 188.728 23.2664C188.461 22.1588 188.271 20.6689 188.26 19.1273C188.277 17.5921 188.461 16.1088 188.728 15.0011C189.184 13.3688 190 12.0798 191.343 11.6782C191.343 11.6782 194.795 10.5122 196.524 15.0465L197.6 13.7639C196.485 12.1381 194.882 11.024 193.055 10.7325C193.044 10.7325 193.033 10.7325 193.023 10.726C192.984 10.726 192.941 10.713 192.903 10.7066C192.707 10.6742 192.452 10.6547 192.109 10.6547C188.679 10.6547 185.814 13.5631 185.156 17.4302C185.064 17.9808 185.009 18.5573 185.009 19.1403C185.009 19.7232 185.058 20.2997 185.156 20.8503C185.819 24.7174 188.679 27.6258 192.109 27.6258C192.479 27.6258 192.745 27.5999 192.946 27.561C192.963 27.561 192.979 27.561 192.99 27.561C194.284 27.4185 195.415 26.9651 196.355 26.5894C197.018 26.3238 197.589 26.0906 197.964 26.0906C198.16 26.0906 198.404 26.0906 198.404 26.9327V27.2825H199.144V20.52C199.176 19.6326 199.329 19.4447 199.997 19.4447H200.291V18.5638H194.969L194.963 18.5508Z" fill="white"/>
<path d="M235.361 10.875H224.945L224.2 15.6618L224.918 15.7914L224.977 15.474C225.026 15.2278 225.064 14.9946 225.108 14.7744C225.173 14.4052 225.233 14.0619 225.314 13.7445C225.635 12.3259 225.94 11.7494 226.364 11.7494H227.853C228.582 11.7494 228.707 11.9373 228.707 13.019V25.119C228.707 26.1748 228.587 26.3562 227.842 26.3886L227.56 26.4015V27.2695H232.74V26.4015L232.458 26.3886C231.713 26.3562 231.593 26.1813 231.593 25.119V13.019C231.593 11.9373 231.724 11.7494 232.447 11.7494H233.936C234.36 11.7494 234.665 12.3259 234.986 13.7445C235.067 14.0619 235.127 14.4117 235.192 14.7744C235.23 15.0011 235.274 15.2343 235.323 15.474L235.383 15.7914L236.1 15.6618L235.355 10.875H235.361Z" fill="white"/>
<path d="M135.751 10.8685H130.26V11.7753H130.564C131.271 11.7753 131.391 11.9632 131.391 13.0255V25.0931C131.391 26.1619 131.287 26.3108 130.554 26.3432L130.26 26.3562V27.2501H135.892C139.757 27.2501 142.459 23.9012 142.459 19.1078C142.459 14.3145 139.768 10.9786 135.751 10.8685ZM134.239 25.2874C134.239 25.2874 134.239 25.8639 134.239 24.3935V12.8441C134.239 12.002 134.343 11.7753 135.077 11.7753H135.218C136.963 11.7753 138.088 12.3972 138.762 13.7315C139.333 14.8975 139.578 16.5687 139.578 19.3151C139.578 24.2445 138.545 26.3432 136.12 26.3432H135.077C134.364 26.3432 134.239 26.2655 134.239 25.2874Z" fill="white"/>
<path d="M9.99718 21.4398C9.99718 21.4398 9.99718 21.4527 10.008 21.4527L15.053 18.9395L17.6298 17.6505C17.8636 17.5339 18.0593 17.3201 18.168 17.0545C19.19 14.6125 21.283 12.9348 23.6968 12.9348C27.1162 12.9348 29.8942 16.2967 29.8942 20.4487C29.8942 24.6008 27.1217 27.9626 23.6968 27.9626C23.6968 27.9626 21.0601 28.0728 19.4292 26.8096L19.152 27.6453C20.5817 28.6752 22.2888 29.2193 24.1099 29.0768C28.3013 28.7464 31.6991 24.7109 31.9926 19.7168C32.3406 13.8093 28.4155 8.8864 23.5337 8.8864C21.457 8.8864 19.5543 9.7803 18.0756 11.2572C18.0484 11.2831 18.0103 11.2572 18.0103 11.2183V0.00575778C18.0103 0.00575778 17.9995 -0.00719722 17.9995 0.00575778C17.6624 0.88022 10.0026 21.4463 10.0026 21.4463L9.99718 21.4398Z" fill="white"/>
<path d="M22.0169 16.7177C22.0169 16.7177 22.0169 16.7047 22.0061 16.7047L16.9611 19.218L14.3843 20.507C14.1505 20.6236 13.9548 20.8374 13.8461 21.1029C12.8241 23.545 10.7311 25.2226 8.31733 25.2226C4.89787 25.2226 2.11991 21.8608 2.11991 17.7087C2.11991 13.5566 4.89244 10.1948 8.31733 10.1948C8.31733 10.1948 10.954 10.0847 12.5849 11.3478L12.8621 10.5122C11.4324 9.48231 9.72535 8.9382 7.90417 9.08071C3.71275 9.41106 0.315039 13.4465 0.0214766 18.4407C-0.326449 24.3482 3.59859 29.2711 8.48043 29.2711C10.5571 29.2711 12.4598 28.3772 13.9385 26.9003C13.9657 26.8744 14.0038 26.9003 14.0038 26.9392V38.1517C14.0038 38.1517 14.0146 38.1647 14.0146 38.1517C14.3517 37.2773 22.0115 16.7112 22.0115 16.7112L22.0169 16.7177Z" fill="white"/>
</svg>
